<mxfile host="app.diagrams.net" modified="2023-08-28T07:08:55.493Z" agent="Mozilla/5.0 (Macintosh; Intel Mac OS X 10_15_7) AppleWebKit/537.36 (KHTML, like Gecko) Chrome/116.0.0.0 Safari/537.36" version="21.6.9" etag="XU6lQ_KaFVfk1Mg-saJV" type="github">
  <diagram name="Page-1" id="Z4JbD2sblTMc1e1q0TAx">
    <mxGraphModel>
      <root>
        <mxCell id="0" />
        <mxCell id="1" parent="0" />
      </root>
    </mxGraphModel>
  </diagram>
</mxfile>
